<svg xmlns="http://www.w3.org/2000/svg" xmlns:xlink="http://www.w3.org/1999/xlink" width="14.0000000096029" height="14" viewBox="0 0 14.0000000096029 14" fill="none"><g opacity="1" transform="translate(0 0)  rotate(0 7.000000004801455 7)"><path id="形状" fill-rule="evenodd" style="fill:#1EA4F1" transform="translate(0 0)  rotate(0 7.000000004801456 7)" opacity="1" d="M0.4 6.24C0.28 6.23 0.17 6.16 0.1 6.07C-0.06 5.86 -0.02 5.57 0.17 5.41L6.72 0.1C6.88 -0.03 7.12 -0.03 7.28 0.1L13.83 5.41C14.02 5.57 14.06 5.86 13.9 6.07C13.83 6.17 13.72 6.23 13.6 6.24C13.48 6.26 13.35 6.22 13.26 6.15L12.96 5.91L12.96 13.17C12.96 13.63 12.6 14 12.16 14L8.4 14C8.15 14 7.94 13.79 7.94 13.53L7.94 9.99L6.06 9.99L6.06 13.53C6.06 13.66 6.01 13.77 5.93 13.86C5.84 13.95 5.72 14 5.6 14L1.84 14C1.4 14 1.04 13.63 1.04 13.17L1.04 5.9L0.74 6.14C0.65 6.22 0.52 6.26 0.4 6.24Z M8.84856 9.8846C8.84856 9.4246 8.48856 9.0546 8.04856 9.0546L5.94856 9.0546C5.50856 9.0546 5.14856 9.4246 5.14856 9.8846L5.14856 13.0646L1.94856 13.0646L1.94856 5.1646L6.99856 1.0646L12.0486 5.1646L12.0486 13.0646L8.84856 13.0646L8.84856 9.8846Z " /></g></svg>