<svg xmlns="http://www.w3.org/2000/svg" xmlns:xlink="http://www.w3.org/1999/xlink" width="14.0000000096029" height="15" viewBox="0 0 14.0000000096029 15" fill="none"><g opacity="1" transform="translate(0 0)  rotate(0 7.000000004801455 7.5)"><path id="形状" fill-rule="evenodd" style="fill:#FFFFFF" transform="translate(0 0)  rotate(0 7.000000004801456 7.5)" opacity="1" d="M12.96 6.33L12.96 14.11C12.96 14.6 12.6 15 12.16 15L8.4 15C8.15 15 7.94 14.78 7.94 14.5L7.94 10.7L6.06 10.7L6.06 14.5C6.06 14.63 6.01 14.76 5.93 14.85C5.84 14.95 5.72 15 5.6 15L1.84 15C1.4 15 1.04 14.6 1.04 14.11L1.04 6.33L0.74 6.58C0.65 6.66 0.52 6.7 0.4 6.69C0.28 6.67 0.17 6.6 0.1 6.5C-0.06 6.28 -0.02 5.97 0.17 5.8L6.72 0.11C6.88 -0.04 7.12 -0.04 7.28 0.11L13.83 5.8C14.02 5.97 14.06 6.28 13.9 6.5C13.83 6.61 13.72 6.67 13.6 6.69C13.48 6.71 13.35 6.67 13.26 6.58L12.96 6.33Z M12.0486 14.0006L8.84856 14.0006L8.84856 10.5806C8.84856 10.1006 8.48856 9.70064 8.04856 9.70064L5.94856 9.70064C5.50856 9.70064 5.14856 10.1006 5.14856 10.5806L5.14856 14.0006L1.94856 14.0006L1.94856 5.53064L6.99856 1.14064L12.0486 5.53064L12.0486 14.0006Z " /></g></svg>