<svg xmlns="http://www.w3.org/2000/svg" xmlns:xlink="http://www.w3.org/1999/xlink" width="15" height="15" viewBox="0 0 15 15" fill="none"><g opacity="1" transform="translate(0 0)  rotate(0 7.5 7.5)"><path id="形状" fill-rule="evenodd" style="fill:#1EA4F1" transform="translate(0 0)  rotate(0 7.5 7.5)" opacity="1" d="M0 7.5C0 11.64 3.36 15 7.5 15C11.64 15 15 11.64 15 7.5C15 3.36 11.64 0 7.5 0C3.36 0 0 3.36 0 7.5Z M4.87001 1.28097C4.11001 1.60097 3.42001 2.06097 2.82001 2.64097L7.13001 6.63097L7.13001 0.760973C6.35001 0.800973 5.59001 0.980973 4.87001 1.28097Z M14.2459 7.50107C14.2459 6.59107 14.0759 5.70107 13.7159 4.87107C13.3759 4.07107 12.8959 3.35107 12.2759 2.73107C11.6559 2.11107 10.9259 1.62107 10.1259 1.28107C9.40587 0.981073 8.65587 0.801073 7.87587 0.761073L7.87587 7.69107L2.47587 12.0111C2.55587 12.1011 2.64587 12.1811 2.72587 12.2711C3.34587 12.8911 4.06587 13.3811 4.87587 13.7211C5.70587 14.0711 6.58587 14.2511 7.49587 14.2511C8.41587 14.2511 9.29587 14.0711 10.1259 13.7211C10.9259 13.3811 11.6559 12.8911 12.2759 12.2711C12.8959 11.6511 13.3759 10.9311 13.7159 10.1311C14.0759 9.29107 14.2459 8.41107 14.2459 7.50107Z M1.28074 10.1265C1.47074 10.5865 1.72074 11.0165 2.00074 11.4265L6.93074 7.47648L2.31074 3.18648C1.88074 3.69648 1.54074 4.25648 1.28074 4.87648C0.93074 5.70648 0.75074 6.58648 0.75074 7.49648C0.75074 8.40648 0.93074 9.29648 1.28074 10.1265Z " /></g></svg>