<svg xmlns="http://www.w3.org/2000/svg" xmlns:xlink="http://www.w3.org/1999/xlink" width="13.999999999999964" height="12" viewBox="0 0 13.999999999999964 12" fill="none"><g opacity="1" transform="translate(0 0)  rotate(0 6.999999999999982 6)"><path id="形状" fill-rule="evenodd" style="fill:#1EA4F1" transform="translate(0 0)  rotate(0 6.999999999999981 6)" opacity="1" d="M6.13 11.14L3.5 11.14L3.5 12L10.5 12L10.5 11.14L7.88 11.14L7.88 9.43L13.15 9.43C13.62 9.43 14 9.04 14 8.57L14 0.86C14 0.86 14 0 13.13 0L0.85 0C0.38 0 0 0.39 0 0.86L0 8.56C0 8.79 0.08 9.01 0.24 9.17C0.4 9.33 0.62 9.42 0.85 9.43L6.13 9.43L6.13 11.14Z M13.0334 0.923077C13.0434 0.933077 13.0434 0.963077 13.0534 0.963077L0.933449 0.963077L0.933449 8.30308L13.0534 8.30308L13.0534 0.963077C13.0848 0.963077 13.0608 0.944603 13.0442 0.931816C13.0396 0.928309 13.0356 0.92523 13.0334 0.923077Z M2.03677 5.70615C1.84677 5.85615 1.80677 6.10615 1.95677 6.29615C2.09677 6.47615 2.37677 6.51615 2.56677 6.38615L4.95677 4.69615L6.75677 6.18615L11.0668 2.57615C11.2368 2.41615 11.2468 2.15615 11.0868 1.98615C10.9268 1.81615 10.6568 1.79615 10.4668 1.94615L6.75677 5.06615L4.99677 3.60615L2.03677 5.70615Z M0.93335 8.30844C0.91335 8.29844 0.90335 8.28844 0.88335 8.28844L0.93335 8.30844Z M0.93335 8.30844L0.98335 8.32844C0.976683 8.34844 0.970017 8.34177 0.957424 8.32918C0.951128 8.32288 0.94335 8.3151 0.93335 8.30844Z M13.0534 8.30308 M13.0534 8.30308C13.0534 8.30308 13.0534 8.30308 13.0534 8.30308 " /></g></svg>