<svg xmlns="http://www.w3.org/2000/svg" xmlns:xlink="http://www.w3.org/1999/xlink" width="13.000000002110795" height="16.000000040518245" viewBox="0 0 13.000000002110795 16.000000040518245" fill="none"><g opacity="1" transform="translate(0 0)  rotate(0 6.500000001055396 8.000000020259122)"><path id="形状" fill-rule="evenodd" style="fill:#1EA4F1" transform="translate(0 0)  rotate(0 6.500000001055396 8.000000020259122)" opacity="1" d="M9.00563 15.9887C6.47375 15.9869 3.94469 15.985 1.41 16C0.77 16 -0.01 15.3 0 14.59C0.0133333 13.9567 0.00888889 13.3233 0.00444444 12.69C0.00222222 12.3733 0 12.0567 0 11.74L0 7.98C0 7.2563 0.00111225 6.5337 0.00222393 5.81148C0.00444558 4.36815 0.00666496 2.9263 0 1.48C0 0.83 0.32 0.39 0.87 0.1C1 0.03 1.15 0 1.3 0L12.46 0C12.74 0 12.95 0.2 12.97 0.47C12.98 0.74 12.76 1.01 12.5 1.05C12.44 1.05667 12.38 1.05444 12.32 1.05222C12.29 1.05111 12.26 1.05 12.23 1.05L1.68 1.05C1.19 1.05 1.01 1.3 1.05 1.75C1.06 1.85 1.1 1.89 1.19 1.9C1.37 1.91 1.56 1.94 1.74 1.94L11.24 1.94C11.59 1.94 11.95 1.98 12.27 2.16C12.78 2.46 12.98 2.9 13 3.46L13 14.2C13 14.65 12.91 15.07 12.62 15.43C12.34 15.76 12.01 15.99 11.54 15.99C10.6947 15.99 9.85 15.9894 9.00563 15.9887Z M11.4393 3.05853C11.7893 3.06853 11.8893 3.16853 11.8893 3.50853L11.8893 14.2885C11.8893 14.3985 11.8793 14.5085 11.8493 14.6185C11.7993 14.7885 11.6793 14.8785 11.4993 14.8985C11.4293 14.9085 11.3593 14.9085 11.2893 14.8985L1.61932 14.8985C1.19932 14.8985 1.04932 14.7585 1.04932 14.3285L1.04932 3.29853C1.04932 3.16866 1.04932 3.10366 1.08172 3.07362C1.11419 3.04352 1.17919 3.04852 1.30932 3.05853C1.39599 3.0652 1.48265 3.06297 1.56932 3.06075C1.61265 3.05964 1.65598 3.05853 1.69932 3.05853L11.4393 3.05853Z " /><path id="形状" fill-rule="evenodd" style="fill:#1EA4F1" transform="translate(2.9999999956184404 4.000000000203109)  rotate(0 3.5000000044808144 4.00000000542763)" opacity="1" d="M6.31 7.97C6.09 7.9 5.91 7.64 5.91 7.35C5.88 6.32 5.4 5.58 4.54 5.14C3.32 4.5 1.8 5.08 1.26 6.43C1.15 6.73 1.06 7.03 1.08 7.36Q1.08 7.705 0.81 7.9C0.66 8.01 0.49 8.04 0.32 7.94C0.13 7.83 -0.01 7.67 0 7.42C0 7.34 0.01 7.26 0.01 7.18C0.08 6.15 0.5 5.29 1.26 4.62C1.42 4.47 1.59 4.32 1.8 4.23C1.95 4.17 1.9 4.09 1.83 4C1.6 3.73 1.44 3.42 1.36 3.06C1.18 2.22 1.32 1.47 1.88 0.82C2.33 0.29 2.9 0.01 3.57 0C4.14 -0.01 4.67 0.2 5.11 0.61C5.78 1.25 6.02 2.06 5.85 2.98C5.78 3.38 5.59 3.76 5.31 4.05C5.17 4.2 5.21 4.25 5.35 4.34C6.08 4.81 6.55 5.49 6.83 6.32C6.94 6.65 6.99 6.99 7 7.34C7.01 7.79 6.69 8.08 6.31 7.97Z M2.34391 2.43404C2.36391 1.73404 2.84391 1.17404 3.58391 1.14404C4.13391 1.12404 4.85391 1.63404 4.80391 2.44404C4.86391 3.17404 4.18391 3.75404 3.59391 3.74404C2.83391 3.72404 2.32391 3.09404 2.34391 2.43404Z " /></g></svg>