<svg xmlns="http://www.w3.org/2000/svg" xmlns:xlink="http://www.w3.org/1999/xlink" width="14" height="13" viewBox="0 0 14 13" fill="none"><g opacity="1" transform="translate(0 0)  rotate(0 7 6.5)"><path id="形状" fill-rule="evenodd" style="fill:#FFFFFF" transform="translate(0 0)  rotate(0 7 6.5)" opacity="1" d="M4.67 0L1.4 0C0.61 0 0 0.6 0 1.39L0 11.61C0 12.4 0.61 13 1.4 13L12.6 13C13.39 13 14 12.4 14 11.61L14 3.25C14 2.46 13.39 1.86 12.6 1.86L7.19 1.86L4.99 0.09C4.85 0.05 4.76 0 4.67 0Z M12.6033 2.78857C12.8833 2.78857 13.0633 2.96857 13.0633 3.24857L13.0633 4.63857L0.933333 4.63857L0.933333 1.38857C0.933333 1.11857 1.12333 0.928571 1.40333 0.928571L4.48333 0.928571L6.67333 2.68857C6.81333 2.73857 6.90333 2.78857 7.00333 2.78857L12.6033 2.78857Z M13.0633 5.57143L0.933333 5.57143L0.933333 11.6114C0.933333 11.8814 1.12333 12.0714 1.40333 12.0714L12.6033 12.0714C12.8833 12.0714 13.0633 11.8814 13.0633 11.6114L13.0633 5.57143Z " /></g></svg>