<svg xmlns="http://www.w3.org/2000/svg" xmlns:xlink="http://www.w3.org/1999/xlink" width="13" height="14.000000000249997" viewBox="0 0 13 14.000000000249997" fill="none"><g opacity="1" transform="translate(0 0)  rotate(0 6.5 7.0000000001250005)"><path id="形状" fill-rule="evenodd" style="fill:#1EA4F1" transform="translate(0 0)  rotate(0 6.5 7.0000000001250005)" opacity="1" d="M2.17 14L10.83 14C12.03 14 13 12.99 13 11.76L13 6.93C13 5.69 12.03 4.69 10.83 4.69L10.51 4.69C10.7 3.08 9.98 1.51 8.66 0.65C7.34 -0.22 5.66 -0.22 4.34 0.65C3.02 1.51 2.3 3.08 2.49 4.69L2.17 4.69C0.97 4.69 0 5.69 0 6.93L0 11.76C0 13 0.97 14 2.17 14Z M8.12046 1.61935C9.10046 2.27935 9.61046 3.48935 9.41046 4.68935L3.58046 4.68935C3.39046 3.48935 3.90046 2.27935 4.88046 1.61935C5.86046 0.949354 7.13046 0.949354 8.12046 1.61935Z M1.0608 6.91781L1.0608 11.7778C1.0608 12.3978 1.5508 12.8978 2.1508 12.8978L10.8508 12.8978C11.4508 12.8978 11.9308 12.3978 11.9308 11.7778L11.9308 6.91781C11.9308 6.29781 11.4508 5.78781 10.8508 5.78781L2.1508 5.78781C1.5508 5.78781 1.0608 6.29781 1.0608 6.91781Z " /><path id="路径" fill-rule="evenodd" style="fill:#1EA4F1" transform="translate(6 8.000000000250001)  rotate(0 0.5 1.5)" opacity="1" d="M0,0.5L0,2.5C0,2.78 0.22,3 0.5,3C0.78,3 1,2.78 1,2.5L1,0.5C1,0.22 0.78,0 0.5,0C0.22,0 0,0.22 0,0.5Z " /></g></svg>