<svg xmlns="http://www.w3.org/2000/svg" xmlns:xlink="http://www.w3.org/1999/xlink" width="14.000000023363263" height="15" viewBox="0 0 14.000000023363263 15" fill="none"><g opacity="1" transform="translate(0 0)  rotate(0 7.000000011681631 7.5)"><path id="形状" fill-rule="evenodd" style="fill:#FFFFFF" transform="translate(0 0)  rotate(0 7.000000011681631 7.5)" opacity="1" d="M12.76 1.63C13.47 1.66 14.03 2.28 14 3.02L14 13.46C14 14.26 13.44 15 12.67 15L1.33 15C0.56 15 0 14.26 0 13.46L0 2.93C0.02 2.19 0.62 1.61 1.33 1.63L2.45 1.63L2.45 0.63C2.45 0.23 2.82 0 3.2 0L4.24 0C4.62 0 4.9 0.23 4.9 0.63L4.9 1.63L9.1 1.63L9.1 0.63C9.1 0.23 9.38 0 9.76 0L10.8 0C11.18 0 11.55 0.23 11.55 0.63L11.55 1.63L12.76 1.63Z M4.20307 2.71289L3.20307 2.71289L3.20307 0.722894L4.20307 0.722894L4.20307 2.71289Z M10.8445 2.71289L9.76454 2.71289L9.76454 0.722894L10.8445 0.722894L10.8445 2.71289Z M9.72847 3.43815L10.7985 3.43815C11.1785 3.43815 11.5485 3.14815 11.5485 2.74815L11.5485 2.34815L12.6685 2.34815C12.9985 2.32815 13.2785 2.58815 13.2985 2.92815L13.2985 5.05815L0.698471 5.05815L0.698471 3.01815C0.668471 2.67815 0.908471 2.37815 1.23847 2.34815L2.44847 2.34815L2.44847 2.74815C2.44847 3.14815 2.81847 3.43815 3.19847 3.43815L4.23847 3.43815C4.58847 3.44815 4.88847 3.14815 4.89847 2.78815L4.89847 2.34815L9.09847 2.34815L9.09847 2.74815C9.08847 3.11815 9.36847 3.42815 9.72847 3.43815Z M0.700968 5.78315L13.301 5.78315L13.301 13.4632C13.301 13.8632 13.051 14.2732 12.671 14.2732L1.33097 14.2732C0.940968 14.2732 0.700968 13.8632 0.700968 13.4632L0.700968 5.78315Z " /><path id="形状" fill-rule="evenodd" style="fill:#FFFFFF" transform="translate(4.0000000017652475 7.000000002311389)  rotate(0 3.0000000004687983 3.0000000105498605)" opacity="1" d="M4.98 5.59C5 5.72 4.95 5.85 4.85 5.93C4.79 5.97 4.72 6 4.65 6L4.5 5.96L3 5.14L1.5 5.96C1.34 6.05 1.13 5.98 1.05 5.81C1.01 5.75 1 5.67 1.02 5.59L1.32 3.85L0.1 2.63C0.01 2.54 -0.02 2.4 0.01 2.27C0.06 2.15 0.16 2.06 0.28 2.04L1.95 1.78L2.7 0.2C2.78 0.02 2.98 -0.05 3.15 0.03C3.21 0.07 3.27 0.13 3.3 0.2L4.05 1.78L5.72 2.04C5.84 2.06 5.94 2.15 5.99 2.27C6.02 2.4 5.99 2.54 5.9 2.63L4.68 3.85L4.98 5.59Z M2.84834 4.42685L1.79834 5.01685L1.99834 3.78685C2.01834 3.66685 1.97834 3.55685 1.89834 3.46685L1.04834 2.61685L2.22834 2.44685C2.33834 2.42685 2.42834 2.35685 2.46834 2.24685L2.99834 1.13685L3.53834 2.24685C3.57834 2.35685 3.65834 2.42685 3.76834 2.44685L4.94834 2.61685L4.09834 3.46685C4.01834 3.55685 3.98834 3.66685 3.99834 3.78685L4.19834 5.01685L3.14834 4.42685L2.99834 4.39685L2.84834 4.42685Z " /></g></svg>