<svg xmlns="http://www.w3.org/2000/svg" xmlns:xlink="http://www.w3.org/1999/xlink" width="14" height="13" viewBox="0 0 14 13" fill="none"><g opacity="1" transform="translate(0 0)  rotate(0 7 6.5)"><path id="形状" fill-rule="evenodd" style="fill:#1EA4F1" transform="translate(0 0)  rotate(0 7 6.5)" opacity="1" d="M0 10.96L0 2.04C0 0.92 0.93 0 2.06 0L11.94 0C13.07 0 14 0.92 14 2.04L14 10.96C14 12.08 13.07 13 11.94 13L2.06 13C0.93 13 0 12.08 0 10.96Z M4.08775 3.68831L9.99775 3.68831L9.99775 3.02831C10.0078 2.75831 10.2278 2.53831 10.4978 2.53831C10.7678 2.53831 10.9878 2.75831 10.9978 3.02831L10.9978 3.68831L12.9978 3.68831L12.9978 2.03831C12.9978 1.46831 12.5278 1.00831 11.9378 1.00831L2.06775 1.00831C1.47775 1.00831 0.997751 1.46831 0.997751 2.03831L0.997751 3.68831L3.09775 3.68831L3.09775 3.02831C3.10775 2.75831 3.32775 2.54831 3.58775 2.54831C3.85775 2.54831 4.07775 2.75831 4.08775 3.02831L4.08775 3.68831Z M4.08811 5.34859C4.08811 5.52859 3.99811 5.69859 3.83811 5.78859C3.68811 5.87859 3.49811 5.87859 3.33811 5.78859C3.18811 5.69859 3.08811 5.52859 3.08811 5.34859L3.08811 4.69859L0.998109 4.69859L0.998109 10.9586C0.998109 11.5286 1.47811 11.9886 2.06811 11.9886L11.9381 11.9886C12.5281 11.9886 12.9981 11.5286 12.9981 10.9586L12.9981 4.69859L10.9981 4.69859L10.9981 5.34859C10.9881 5.61859 10.7681 5.83859 10.4981 5.83859C10.2281 5.83859 10.0081 5.61859 9.99811 5.34859L9.99811 4.69859L4.08811 4.69859L4.08811 5.34859Z " /></g></svg>