<?xml version="1.0" standalone="no"?><!DOCTYPE svg PUBLIC "-//W3C//DTD SVG 1.1//EN" "http://www.w3.org/Graphics/SVG/1.1/DTD/svg11.dtd"><svg t="1602854248033" class="icon" viewBox="0 0 1024 1024" version="1.1" xmlns="http://www.w3.org/2000/svg" p-id="3731" xmlns:xlink="http://www.w3.org/1999/xlink" width="20" height="20"><defs><style type="text/css"></style></defs><path d="M98 98.2v830.1h830.1V98.2H98z m627 233.4h-35.7v441.2c0 9.6-7.7 17.3-17.3 17.3H360.6c-9.6 0-17.3-7.7-17.3-17.3V331.6h-42.1c-11.9 0-21.6-9.7-21.6-21.6 0-11.9 9.7-21.6 21.6-21.6H394.5v-26c0-14.3 11.6-25.9 25.9-25.9h190.3c14.3 0 25.9 11.6 25.9 25.9v26H725c11.9 0 21.6 9.7 21.6 21.6 0 11.9-9.7 21.6-21.6 21.6zM390.8 738.1H633V340.2H390.8v397.9zM567.5 440c0-9.6 7.7-17.3 17.3-17.3s17.3 7.7 17.3 17.3v207.6c0 9.6-7.7 17.3-17.3 17.3s-17.3-7.7-17.3-17.3V440z m-71.7-25.9c0-9.6 7.7-17.3 17.3-17.3 9.6 0 17.3 7.7 17.3 17.3v259.5c0 9.6-7.7 17.3-17.3 17.3-9.6 0-17.3-7.7-17.3-17.3V414.1zM424 440c0-9.6 7.7-17.3 17.3-17.3s17.3 7.7 17.3 17.3v207.6c0 9.6-7.7 17.3-17.3 17.3s-17.3-7.7-17.3-17.3V440z" p-id="3732"></path></svg>