<?xml version="1.0" standalone="no"?><!DOCTYPE svg PUBLIC "-//W3C//DTD SVG 1.1//EN" "http://www.w3.org/Graphics/SVG/1.1/DTD/svg11.dtd"><svg t="1602854226721" class="icon" viewBox="0 0 1024 1024" version="1.1" xmlns="http://www.w3.org/2000/svg" p-id="2710" xmlns:xlink="http://www.w3.org/1999/xlink" width="20" height="20"><defs><style type="text/css"></style></defs><path d="M928.1 928.2H98v-830h830.1v830zM863.2 163H162.9v700.4h700.4V163z" p-id="2711"></path><path d="M576.8 437.6v180.9c0 9-7.3 16.2-16.2 16.2h-96.3c-9 0-16.2-7.3-16.2-16.2v-181h-91.9c-9 0-16.2-7.3-16.2-16.2 0-4.2 1.7-8.3 4.6-11.3l155.8-157.8c6.3-6.4 16.6-6.4 22.9-0.2l0.2 0.2L679.3 410c6.3 6.4 6.2 16.7-0.2 22.9-3 3-7.1 4.6-11.3 4.6l-91 0.1zM272.1 703.9h480.1c8.8 0 16 7.1 16 15.8V752c0 8.7-7.2 15.8-16 15.8H272.1c-8.8 0-16-7.1-16-15.8v-32.4c-0.1-8.7 7.1-15.7 16-15.7z" p-id="2712"></path></svg>