<?xml version="1.0" standalone="no"?><!DOCTYPE svg PUBLIC "-//W3C//DTD SVG 1.1//EN" "http://www.w3.org/Graphics/SVG/1.1/DTD/svg11.dtd"><svg t="1602854244772" class="icon" viewBox="0 0 1024 1024" version="1.1" xmlns="http://www.w3.org/2000/svg" p-id="3584" xmlns:xlink="http://www.w3.org/1999/xlink" width="20" height="20"><defs><style type="text/css"></style></defs><path d="M440.2 664.9c-9.6 0-17.3-7.7-17.3-17.3V440c0-9.6 7.7-17.3 17.3-17.3 9.6 0 17.3 7.7 17.3 17.3v207.6c0 9.6-7.7 17.3-17.3 17.3zM512 690.9c-9.6 0-17.3-7.7-17.3-17.3V414.1c0-9.6 7.7-17.3 17.3-17.3 9.6 0 17.3 7.7 17.3 17.3v259.5c0 9.5-7.7 17.3-17.3 17.3zM583.8 664.9c-9.6 0-17.3-7.7-17.3-17.3V440c0-9.6 7.7-17.3 17.3-17.3 9.6 0 17.3 7.7 17.3 17.3v207.6c0 9.6-7.8 17.3-17.3 17.3zM723.9 331.5H300.1c-11.9 0-21.6-9.7-21.6-21.6 0-11.9 9.7-21.6 21.6-21.6h423.8c11.9 0 21.6 9.7 21.6 21.6 0 12-9.6 21.6-21.6 21.6z" p-id="3585"></path><path d="M342.2 288.3v484.4c0 9.6 7.7 17.3 17.3 17.3h311.4c9.6 0 17.3-7.7 17.3-17.3V288.3h-346z m294.1 449.8H394.1V340.2h242.2v397.9zM635.6 288.3H393.4v-26c0-14.3 11.6-25.9 25.9-25.9h190.3c14.3 0 25.9 11.6 25.9 25.9v26z" p-id="3586"></path><path d="M928.1 928.2H98v-830h830.1v830zM863.2 163H162.9v700.4h700.4V163z" p-id="3587"></path></svg>