<?xml version="1.0" standalone="no"?><!DOCTYPE svg PUBLIC "-//W3C//DTD SVG 1.1//EN" "http://www.w3.org/Graphics/SVG/1.1/DTD/svg11.dtd"><svg t="1602854220406" class="icon" viewBox="0 0 1024 1024" version="1.1" xmlns="http://www.w3.org/2000/svg" p-id="2417" xmlns:xlink="http://www.w3.org/1999/xlink" width="20" height="20"><defs><style type="text/css"></style></defs><path d="M928 928.2H98v-830h830v830z m-64.8-765.1H162.8v700.3h700.3V163.1z" p-id="2418"></path><path d="M515.1 624.8c-65.7 0-119-49.6-119-110.8 0-61.2 53.3-110.8 119-110.8s119 49.6 119 110.8-53.2 110.8-119 110.8z" p-id="2419"></path><path d="M830.1 518.8c-0.2 0.9-0.1 1.9-0.4 2.8-0.1 0.3-0.4 0.6-0.5 0.9-0.2 0.6-0.2 1.1-0.5 1.7C771 647.2 645.5 716.7 513 716.7s-258-69.6-315.7-192.6c-0.2-0.5-0.2-1.1-0.4-1.6-0.1-0.4-0.4-0.5-0.6-1-0.3-0.9-0.2-1.9-0.4-2.8-0.4-1.7-0.7-3.3-0.7-5 0-1.7 0.3-3.3 0.7-4.9 0.2-0.9 0.1-1.9 0.4-2.8 0.1-0.3 0.4-0.5 0.6-0.9 0.2-0.6 0.2-1.1 0.4-1.6 57.7-123 184.5-193.7 316.9-193.7 132.5 0 256.7 70.8 314.4 193.8 0.3 0.5 0.2 1.1 0.5 1.6 0.1 0.3 0.4 0.6 0.5 1 0.3 0.9 0.2 1.9 0.4 2.8 0.4 1.7 0.7 3.3 0.7 4.9 0 1.7-0.3 3.3-0.6 4.9zM514.2 355c-107 0-213.4 53.7-264.5 158.7C301.2 619.1 406.3 671.5 513 671.5c107 0 212.2-52.7 263.3-157.6C725.2 408.8 621.1 355 514.2 355z" p-id="2420"></path></svg>