<?xml version="1.0" standalone="no"?><!DOCTYPE svg PUBLIC "-//W3C//DTD SVG 1.1//EN" "http://www.w3.org/Graphics/SVG/1.1/DTD/svg11.dtd"><svg t="1602854217187" class="icon" viewBox="0 0 1024 1024" version="1.1" xmlns="http://www.w3.org/2000/svg" p-id="2272" xmlns:xlink="http://www.w3.org/1999/xlink" width="20" height="20"><defs><style type="text/css"></style></defs><path d="M98 98.2v830.1h830.1V98.2H98z m295 640.4l-139.6 47.2c-8 2.7-15.7-4.9-13-13l47.2-139.6c2.4-7.2 11.6-9.3 16.9-4l92.4 92.4c5.4 5.4 3.3 14.5-3.9 17z m314.8-304.5L433 708.9c-8 8-20.9 8-28.9 0l-86.8-86.8c-8-8-8-20.9 0-28.9l274.8-274.8c8-8 20.9-8 28.9 0l86.8 86.8c8 8 8 20.9 0 28.9z m72.4-72.3l-28.9 28.9c-8 8-20.9 8-28.9 0l-86.8-86.8c-8-8-8-20.9 0-28.9l28.9-28.9c8-8 20.9-8 28.9 0l86.8 86.8c7.9 7.9 7.9 20.9 0 28.9z" p-id="2273"></path></svg>