<?xml version="1.0" standalone="no"?><!DOCTYPE svg PUBLIC "-//W3C//DTD SVG 1.1//EN" "http://www.w3.org/Graphics/SVG/1.1/DTD/svg11.dtd"><svg t="1602854242130" class="icon" viewBox="0 0 1024 1024" version="1.1" xmlns="http://www.w3.org/2000/svg" p-id="3439" xmlns:xlink="http://www.w3.org/1999/xlink" width="20" height="20"><defs><style type="text/css"></style></defs><path d="M98 98.2v830h830v-830H98zM733.9 670c17.5 17.5 17.5 45.8 0 63.3s-45.8 17.5-63.3 0L512.3 575 354 733.3c-17.5 17.5-45.8 17.5-63.3 0s-17.5-45.8 0-63.3L449 511.7 290.7 353.5c-17.5-17.5-17.5-45.8 0-63.3s45.8-17.5 63.3 0l158.3 158.3 158.3-158.3c17.5-17.5 45.8-17.5 63.3 0s17.5 45.8 0 63.3L575.6 511.7 733.9 670z" p-id="3440"></path></svg>