<?xml version="1.0" standalone="no"?><!DOCTYPE svg PUBLIC "-//W3C//DTD SVG 1.1//EN" "http://www.w3.org/Graphics/SVG/1.1/DTD/svg11.dtd"><svg t="1602854229553" class="icon" viewBox="0 0 1024 1024" version="1.1" xmlns="http://www.w3.org/2000/svg" p-id="2856" xmlns:xlink="http://www.w3.org/1999/xlink" width="20" height="20"><defs><style type="text/css"></style></defs><path d="M98 98.2v830.1h830.1V98.2H98zM344.8 410l155.8-157.8c6.3-6.4 16.6-6.4 22.9-0.2l0.2 0.2L679.5 410c6.3 6.4 6.2 16.7-0.2 22.9-3 3-7.1 4.6-11.3 4.6h-90.9v181c0 9-7.3 16.2-16.2 16.2h-96.3c-9 0-16.2-7.3-16.2-16.2v-181h-91.9c-9 0-16.2-7.3-16.2-16.2-0.1-4.3 1.5-8.3 4.5-11.3z m423.3 342c0 8.7-7.2 15.8-16 15.8h-480c-8.8 0-16-7.1-16-15.8v-32.4c0-8.7 7.2-15.8 16-15.8h480.1c8.8 0 16 7.1 16 15.8V752z" p-id="2857"></path></svg>