<?xml version="1.0" standalone="no"?><!DOCTYPE svg PUBLIC "-//W3C//DTD SVG 1.1//EN" "http://www.w3.org/Graphics/SVG/1.1/DTD/svg11.dtd"><svg t="1602854258519" class="icon" viewBox="0 0 1024 1024" version="1.1" xmlns="http://www.w3.org/2000/svg" p-id="4167" xmlns:xlink="http://www.w3.org/1999/xlink" width="20" height="20"><defs><style type="text/css"></style></defs><path d="M779.8 557.7H557.5V780c0 24.6-19.9 44.5-44.5 44.5s-44.5-19.9-44.5-44.5V557.7H246.2c-24.6 0-44.5-19.9-44.5-44.5s19.9-44.5 44.5-44.5h222.3V246.4c0-24.6 19.9-44.5 44.5-44.5s44.5 19.9 44.5 44.5v222.3h222.3c24.6 0 44.5 19.9 44.5 44.5-0.1 24.6-20 44.5-44.5 44.5z" p-id="4168"></path><path d="M928 928.2H98v-830h830v830z m-64.8-765.1H162.8v700.3h700.3V163.1z" p-id="4169"></path></svg>