<?xml version="1.0" standalone="no"?><!DOCTYPE svg PUBLIC "-//W3C//DTD SVG 1.1//EN" "http://www.w3.org/Graphics/SVG/1.1/DTD/svg11.dtd"><svg t="1602906326026" class="icon" viewBox="0 0 1024 1024" version="1.1" xmlns="http://www.w3.org/2000/svg" p-id="57378" xmlns:xlink="http://www.w3.org/1999/xlink" width="20" height="20"><defs><style type="text/css"></style></defs><path d="M928 192h-224V160c0-54.4-41.6-96-96-96h-192c-54.4 0-96 41.6-96 96v32H96c-19.2 0-32 12.8-32 32s12.8 32 32 32h832c19.2 0 32-12.8 32-32s-12.8-32-32-32zM803.2 288H220.8c-19.2 3.2-32 19.2-28.8 35.2l57.6 547.2c0 48 41.6 89.6 89.6 89.6h345.6c48 0 89.6-38.4 89.6-89.6L832 323.2c3.2-16-9.6-32-28.8-35.2z m-384 576c-19.2 0-32-16-28.8-32l-9.6-422.4c0-16 16-28.8 35.2-28.8s32 16 28.8 32l9.6 422.4c-3.2 19.2-19.2 28.8-35.2 28.8z m220.8-32c0 16-12.8 32-28.8 32-19.2 0-32-9.6-35.2-28.8V416c0-16 12.8-32 28.8-32 19.2 0 32 9.6 35.2 28.8V832z" p-id="57379"></path></svg>