<?xml version="1.0" standalone="no"?><!DOCTYPE svg PUBLIC "-//W3C//DTD SVG 1.1//EN" "http://www.w3.org/Graphics/SVG/1.1/DTD/svg11.dtd"><svg t="1602908353843" class="icon" viewBox="0 0 1024 1024" version="1.1" xmlns="http://www.w3.org/2000/svg" p-id="8752" xmlns:xlink="http://www.w3.org/1999/xlink" width="20" height="20"><defs><style type="text/css"></style></defs><path d="M813.1 98.2H210.9c-48.9 0-88.5 39.6-88.5 88.5v653.9c0 48.9 39.6 88.5 88.5 88.5H552c193 0 349.5-156.5 349.5-349.5V186.7c0.1-48.9-39.6-88.5-88.4-88.5zM575.7 752H280.6c-25.7 0-46.5-20.8-46.5-46.5s20.8-46.5 46.5-46.5h295.1c25.7 0 46.5 20.8 46.5 46.5S601.4 752 575.7 752zM234.1 504c0-25.7 20.8-46.5 46.5-46.5h207.6c25.7 0 46.5 20.8 46.5 46.5s-20.8 46.5-46.5 46.5H280.6c-25.7 0-46.5-20.9-46.5-46.5zM649 348.9H280.6c-25.7 0-46.5-20.8-46.5-46.5s20.8-46.5 46.5-46.5H649c25.7 0 46.5 20.8 46.5 46.5-0.1 25.7-20.9 46.5-46.5 46.5z" p-id="8753"></path></svg>