<svg xmlns="http://www.w3.org/2000/svg" version="1.1" baseProfile="full" width="398" height="298" style="user-select: none; position: absolute; left: 0px; top: 0px;">
<g>
<rect width="398" height="298" x="0" y="0" id="0" style="fill: transparent;">
</rect>
</g>
<g>
<path d="M 61.8742 218.5 L 358.2 218.5" fill="none" stroke="#ccc" stroke-width="1" paint-order="fill" stroke-opacity="1" stroke-dasharray="" stroke-linecap="butt" stroke-linejoin="miter" stroke-miterlimit="10" clip-path="none">
</path>
<path d="M 61.8742 191.5 L 358.2 191.5" fill="none" stroke="#ccc" stroke-width="1" paint-order="fill" stroke-opacity="1" stroke-dasharray="" stroke-linecap="butt" stroke-linejoin="miter" stroke-miterlimit="10" clip-path="none">
</path>
<path d="M 61.8742 165.5 L 358.2 165.5" fill="none" stroke="#ccc" stroke-width="1" paint-order="fill" stroke-opacity="1" stroke-dasharray="" stroke-linecap="butt" stroke-linejoin="miter" stroke-miterlimit="10" clip-path="none">
</path>
<path d="M 61.8742 139.5 L 358.2 139.5" fill="none" stroke="#ccc" stroke-width="1" paint-order="fill" stroke-opacity="1" stroke-dasharray="" stroke-linecap="butt" stroke-linejoin="miter" stroke-miterlimit="10" clip-path="none">
</path>
<path d="M 61.8742 112.5 L 358.2 112.5" fill="none" stroke="#ccc" stroke-width="1" paint-order="fill" stroke-opacity="1" stroke-dasharray="" stroke-linecap="butt" stroke-linejoin="miter" stroke-miterlimit="10" clip-path="none">
</path>
<path d="M 61.8742 86.5 L 358.2 86.5" fill="none" stroke="#ccc" stroke-width="1" paint-order="fill" stroke-opacity="1" stroke-dasharray="" stroke-linecap="butt" stroke-linejoin="miter" stroke-miterlimit="10" clip-path="none">
</path>
<path d="M 61.8742 60.5 L 358.2 60.5" fill="none" stroke="#ccc" stroke-width="1" paint-order="fill" stroke-opacity="1" stroke-dasharray="" stroke-linecap="butt" stroke-linejoin="miter" stroke-miterlimit="10" clip-path="none">
</path>
<path d="M 62.5 218 L 62.5 60" fill="none" stroke="#333" stroke-width="1" paint-order="fill" stroke-opacity="1" stroke-dasharray="" stroke-linecap="round" stroke-linejoin="miter" stroke-miterlimit="10" clip-path="none">
</path>
<path d="M 61.8742 218.5 L 358.2 218.5" fill="none" stroke="#333" stroke-width="1" paint-order="fill" stroke-opacity="1" stroke-dasharray="" stroke-linecap="round" stroke-linejoin="miter" stroke-miterlimit="10" clip-path="none">
</path>
<path d="M 61.8742 218.5 L 56.8742 218.5" fill="none" stroke="#333" stroke-width="1" paint-order="fill" stroke-opacity="1" stroke-dasharray="" stroke-linecap="butt" stroke-linejoin="miter" stroke-miterlimit="10" clip-path="none">
</path>
<path d="M 61.8742 191.5 L 56.8742 191.5" fill="none" stroke="#333" stroke-width="1" paint-order="fill" stroke-opacity="1" stroke-dasharray="" stroke-linecap="butt" stroke-linejoin="miter" stroke-miterlimit="10" clip-path="none">
</path>
<path d="M 61.8742 165.5 L 56.8742 165.5" fill="none" stroke="#333" stroke-width="1" paint-order="fill" stroke-opacity="1" stroke-dasharray="" stroke-linecap="butt" stroke-linejoin="miter" stroke-miterlimit="10" clip-path="none">
</path>
<path d="M 61.8742 139.5 L 56.8742 139.5" fill="none" stroke="#333" stroke-width="1" paint-order="fill" stroke-opacity="1" stroke-dasharray="" stroke-linecap="butt" stroke-linejoin="miter" stroke-miterlimit="10" clip-path="none">
</path>
<path d="M 61.8742 112.5 L 56.8742 112.5" fill="none" stroke="#333" stroke-width="1" paint-order="fill" stroke-opacity="1" stroke-dasharray="" stroke-linecap="butt" stroke-linejoin="miter" stroke-miterlimit="10" clip-path="none">
</path>
<path d="M 61.8742 86.5 L 56.8742 86.5" fill="none" stroke="#333" stroke-width="1" paint-order="fill" stroke-opacity="1" stroke-dasharray="" stroke-linecap="butt" stroke-linejoin="miter" stroke-miterlimit="10" clip-path="none">
</path>
<path d="M 61.8742 60.5 L 56.8742 60.5" fill="none" stroke="#333" stroke-width="1" paint-order="fill" stroke-opacity="1" stroke-dasharray="" stroke-linecap="butt" stroke-linejoin="miter" stroke-miterlimit="10" clip-path="none">
</path>
<path d="M 62.5 218 L 62.5 223" fill="none" stroke="#333" stroke-width="1" paint-order="fill" stroke-opacity="1" stroke-dasharray="" stroke-linecap="butt" stroke-linejoin="miter" stroke-miterlimit="10" clip-path="none">
</path>
<path d="M 136.5 218 L 136.5 223" fill="none" stroke="#333" stroke-width="1" paint-order="fill" stroke-opacity="1" stroke-dasharray="" stroke-linecap="butt" stroke-linejoin="miter" stroke-miterlimit="10" clip-path="none">
</path>
<path d="M 210.5 218 L 210.5 223" fill="none" stroke="#333" stroke-width="1" paint-order="fill" stroke-opacity="1" stroke-dasharray="" stroke-linecap="butt" stroke-linejoin="miter" stroke-miterlimit="10" clip-path="none">
</path>
<path d="M 284.5 218 L 284.5 223" fill="none" stroke="#333" stroke-width="1" paint-order="fill" stroke-opacity="1" stroke-dasharray="" stroke-linecap="butt" stroke-linejoin="miter" stroke-miterlimit="10" clip-path="none">
</path>
<path d="M 358.5 218 L 358.5 223" fill="none" stroke="#333" stroke-width="1" paint-order="fill" stroke-opacity="1" stroke-dasharray="" stroke-linecap="butt" stroke-linejoin="miter" stroke-miterlimit="10" clip-path="none">
</path>
<text transform="matrix(1,2.4492937051703357e-16,-2.4492937051703357e-16,1,53.87421798706055,218)" fill="#333" fill-opacity="1" stroke="none" clip-path="none" style="font: 12px &quot;Microsoft YaHei&quot;;">
<tspan dominant-baseline="middle" text-anchor="end" x="0" y="0">0</tspan>
</text>
<text transform="matrix(1,2.4492937051703357e-16,-2.4492937051703357e-16,1,53.87421798706055,191.6666717529297)" fill="#333" fill-opacity="1" stroke="none" clip-path="none" style="font: 12px &quot;Microsoft YaHei&quot;;">
<tspan dominant-baseline="middle" text-anchor="end" x="0" y="0">5</tspan>
</text>
<text transform="matrix(1,2.4492937051703357e-16,-2.4492937051703357e-16,1,53.87421798706055,165.3333282470703)" fill="#333" fill-opacity="1" stroke="none" clip-path="none" style="font: 12px &quot;Microsoft YaHei&quot;;">
<tspan dominant-baseline="middle" text-anchor="end" x="0" y="0">10</tspan>
</text>
<text transform="matrix(1,2.4492937051703357e-16,-2.4492937051703357e-16,1,53.87421798706055,139)" fill="#333" fill-opacity="1" stroke="none" clip-path="none" style="font: 12px &quot;Microsoft YaHei&quot;;">
<tspan dominant-baseline="middle" text-anchor="end" x="0" y="0">15</tspan>
</text>
<text transform="matrix(1,2.4492937051703357e-16,-2.4492937051703357e-16,1,53.87421798706055,112.66666412353516)" fill="#333" fill-opacity="1" stroke="none" clip-path="none" style="font: 12px &quot;Microsoft YaHei&quot;;">
<tspan dominant-baseline="middle" text-anchor="end" x="0" y="0">20</tspan>
</text>
<text transform="matrix(1,2.4492937051703357e-16,-2.4492937051703357e-16,1,53.87421798706055,86.33332824707031)" fill="#333" fill-opacity="1" stroke="none" clip-path="none" style="font: 12px &quot;Microsoft YaHei&quot;;">
<tspan dominant-baseline="middle" text-anchor="end" x="0" y="0">25</tspan>
</text>
<text transform="matrix(1,2.4492937051703357e-16,-2.4492937051703357e-16,1,53.87421798706055,60)" fill="#333" fill-opacity="1" stroke="none" clip-path="none" style="font: 12px &quot;Microsoft YaHei&quot;;">
<tspan dominant-baseline="middle" text-anchor="end" x="0" y="0">30</tspan>
</text>
<text transform="matrix(1,0,0,1,98.9149398803711,226)" fill="#333" fill-opacity="1" stroke="none" clip-path="none" style="font: 12px &quot;Microsoft YaHei&quot;;">
<tspan dominant-baseline="middle" text-anchor="middle" x="0" y="6">河北省</tspan>
</text>
<text transform="matrix(1,0,0,1,172.9963836669922,226)" fill="#333" fill-opacity="1" stroke="none" clip-path="none" style="font: 12px &quot;Microsoft YaHei&quot;;">
<tspan dominant-baseline="middle" text-anchor="middle" x="0" y="6">四川省</tspan>
</text>
<text transform="matrix(1,0,0,1,247.0778350830078,226)" fill="#333" fill-opacity="1" stroke="none" clip-path="none" style="font: 12px &quot;Microsoft YaHei&quot;;">
<tspan dominant-baseline="middle" text-anchor="middle" x="0" y="6">宁夏回族自治区</tspan>
</text>
<text transform="matrix(1,0,0,1,321.1592712402344,226)" fill="#333" fill-opacity="1" stroke="none" clip-path="none" style="font: 12px &quot;Microsoft YaHei&quot;;">
<tspan dominant-baseline="middle" text-anchor="middle" x="0" y="6">湖南省</tspan>
</text>
<path d="M 1 0 A 1 1 0 1 0 1 0.0001" fill="rgba(129, 58, 32, 0.68)" fill-opacity="0.8" stroke="none" transform="matrix(2,0,0,2,98.9149398803711,60)" clip-path="none">
</path>
<text transform="matrix(1,0,0,1,0,0)" fill="rgba(173, 38, 38, 1)" fill-opacity="0.8" stroke="none" clip-path="none" style="font: 12px &quot;Microsoft YaHei&quot;;">
<tspan dominant-baseline="middle" text-anchor="middle" x="98.9149398803711" y="47">30</tspan>
</text>
<path d="M 1 0 A 1 1 0 1 0 1 0.0001" fill="rgba(129, 58, 32, 0.68)" fill-opacity="0.8" stroke="none" transform="matrix(2,0,0,2,172.9963836669922,168.625)" clip-path="none">
</path>
<text transform="matrix(1,0,0,1,0,0)" fill="rgba(173, 38, 38, 1)" fill-opacity="0.8" stroke="none" clip-path="none" style="font: 12px &quot;Microsoft YaHei&quot;;">
<tspan dominant-baseline="middle" text-anchor="middle" x="172.9963836669922" y="155.625">9.375</tspan>
</text>
<path d="M 1 0 A 1 1 0 1 0 1 0.0001" fill="rgba(129, 58, 32, 0.68)" fill-opacity="0.8" stroke="none" transform="matrix(2,0,0,2,247.0778350830078,160.72500610351562)" clip-path="none">
</path>
<text transform="matrix(1,0,0,1,0,0)" fill="rgba(173, 38, 38, 1)" fill-opacity="0.8" stroke="none" clip-path="none" style="font: 12px &quot;Microsoft YaHei&quot;;">
<tspan dominant-baseline="middle" text-anchor="middle" x="247.0778350830078" y="147.72500610351562">10.875</tspan>
</text>
<path d="M 1 0 A 1 1 0 1 0 1 0.0001" fill="rgba(129, 58, 32, 0.68)" fill-opacity="0.8" stroke="none" transform="matrix(2,0,0,2,321.1592712402344,168.625)" clip-path="none">
</path>
<path d="M -5 -5 L 5 -5 L 5 5 L -5 5 L -5 -5 Z" fill="rgba(0,0,0,0)" fill-opacity="1" stroke="#ccc" stroke-width="0" paint-order="fill" stroke-opacity="1" stroke-dasharray="" stroke-linecap="butt" stroke-linejoin="miter" stroke-miterlimit="10" transform="matrix(1,0,0,1,199,293)" clip-path="none">
</path>
<text transform="matrix(1,0,0,1,0,0)" fill="rgba(173, 38, 38, 1)" fill-opacity="0.8" stroke="none" clip-path="none" style="font: 12px &quot;Microsoft YaHei&quot;;">
<tspan dominant-baseline="middle" text-anchor="middle" x="321.1592712402344" y="155.625">9.375</tspan>
</text>
</g>
</svg>